M48
;GenerationSoftware,Autodesk,EAGLE,9.6.2*%
;CreationDate,2022-11-19T12:57:37Z*%
FMAT,2
ICI,OFF
METRIC,TZ,000.000
T8C0.350
T7C0.813
T6C1.016
T5C1.100
T4C1.200
T3C1.300
T2C1.321
T1C3.302
%
G90
M71
T1
X22860Y16510
X2540Y16510
X2540Y49530
X22860Y49530
T2
X53340Y81280
X28194Y76200
X53340Y71120
T3
X59150Y68120
X59150Y81740
T4
X85630Y81740
T5
X85630Y68120
T6
X29210Y59690
X77470Y36830
X77724Y39370
X77470Y41910
X77724Y46990
X77470Y49530
X77724Y52070
X77470Y54610
X77724Y57150
X77470Y59690
X28956Y57150
X29210Y54610
X28956Y52070
X29210Y49530
X28956Y46990
X29210Y44450
X28956Y41910
X29210Y37846
X28956Y35306
X29210Y32766
X28956Y30226
X29210Y27686
X28956Y25146
X29210Y22606
X28956Y20066
X29210Y17526
X29210Y14986
X77470Y26670
X77724Y24130
X1270Y21590
X1270Y24130
X1270Y26670
X1270Y29210
X1270Y31750
X1270Y34290
X1270Y36830
X1270Y39370
X1270Y41910
X1270Y44450
X24130Y21590
X24130Y24130
X24130Y26670
X24130Y29210
X24130Y31750
X24130Y34290
X24130Y36830
X24130Y39370
X24130Y41910
X24130Y44450
X86360Y7620
X86360Y10160
X11430Y64770
X13970Y64770
X16510Y64770
X7620Y72390
X7620Y74930
X92710Y10160
X92710Y7620
X86360Y30480
X88900Y30480
X8890Y64770
X77724Y34290
X77724Y29210
X77470Y31750
X91440Y30480
T7
X86360Y53340
X86360Y50800
X86360Y48260
X86360Y45720
X86360Y43180
X86360Y40640
T8
X0Y3810
X91440Y82550
X91440Y3810
X1270Y83820
M30