G04 EAGLE Gerber RS-274X export*
G75*
%MOMM*%
%FSLAX34Y34*%
%LPD*%
%IN*%
%IPPOS*%
%AMOC8*
5,1,8,0,0,1.08239X$1,22.5*%
G01*
%ADD10C,0.254000*%


D10*
X-25400Y12700D02*
X949200Y0D01*
X949200Y863500D01*
X-25400Y876200D01*
X-25400Y12700D01*
X229140Y181610D02*
X230219Y181539D01*
X231291Y181398D01*
X232351Y181187D01*
X233395Y180908D01*
X234419Y180560D01*
X235417Y180146D01*
X236387Y179668D01*
X237323Y179128D01*
X238222Y178527D01*
X239079Y177869D01*
X239892Y177157D01*
X240657Y176392D01*
X241369Y175579D01*
X242027Y174722D01*
X242628Y173823D01*
X243168Y172887D01*
X243646Y171917D01*
X244060Y170919D01*
X244408Y169895D01*
X244687Y168851D01*
X244898Y167791D01*
X245039Y166719D01*
X245110Y165640D01*
X245110Y164560D01*
X245039Y163481D01*
X244898Y162409D01*
X244687Y161349D01*
X244408Y160305D01*
X244060Y159281D01*
X243646Y158283D01*
X243168Y157313D01*
X242628Y156377D01*
X242027Y155478D01*
X241369Y154621D01*
X240657Y153808D01*
X239892Y153044D01*
X239079Y152331D01*
X238222Y151673D01*
X237323Y151072D01*
X236387Y150532D01*
X235417Y150054D01*
X234419Y149640D01*
X233395Y149292D01*
X232351Y149013D01*
X231291Y148802D01*
X230219Y148661D01*
X229140Y148590D01*
X228060Y148590D01*
X226981Y148661D01*
X225909Y148802D01*
X224849Y149013D01*
X223805Y149292D01*
X222781Y149640D01*
X221783Y150054D01*
X220813Y150532D01*
X219877Y151072D01*
X218978Y151673D01*
X218121Y152331D01*
X217308Y153044D01*
X216544Y153808D01*
X215831Y154621D01*
X215173Y155478D01*
X214572Y156377D01*
X214032Y157313D01*
X213554Y158283D01*
X213140Y159281D01*
X212792Y160305D01*
X212513Y161349D01*
X212302Y162409D01*
X212161Y163481D01*
X212090Y164560D01*
X212090Y165640D01*
X212161Y166719D01*
X212302Y167791D01*
X212513Y168851D01*
X212792Y169895D01*
X213140Y170919D01*
X213554Y171917D01*
X214032Y172887D01*
X214572Y173823D01*
X215173Y174722D01*
X215831Y175579D01*
X216544Y176392D01*
X217308Y177157D01*
X218121Y177869D01*
X218978Y178527D01*
X219877Y179128D01*
X220813Y179668D01*
X221783Y180146D01*
X222781Y180560D01*
X223805Y180908D01*
X224849Y181187D01*
X225909Y181398D01*
X226981Y181539D01*
X228060Y181610D01*
X229140Y181610D01*
X25940Y181610D02*
X27019Y181539D01*
X28091Y181398D01*
X29151Y181187D01*
X30195Y180908D01*
X31219Y180560D01*
X32217Y180146D01*
X33187Y179668D01*
X34123Y179128D01*
X35022Y178527D01*
X35879Y177869D01*
X36692Y177157D01*
X37457Y176392D01*
X38169Y175579D01*
X38827Y174722D01*
X39428Y173823D01*
X39968Y172887D01*
X40446Y171917D01*
X40860Y170919D01*
X41208Y169895D01*
X41487Y168851D01*
X41698Y167791D01*
X41839Y166719D01*
X41910Y165640D01*
X41910Y164560D01*
X41839Y163481D01*
X41698Y162409D01*
X41487Y161349D01*
X41208Y160305D01*
X40860Y159281D01*
X40446Y158283D01*
X39968Y157313D01*
X39428Y156377D01*
X38827Y155478D01*
X38169Y154621D01*
X37457Y153808D01*
X36692Y153044D01*
X35879Y152331D01*
X35022Y151673D01*
X34123Y151072D01*
X33187Y150532D01*
X32217Y150054D01*
X31219Y149640D01*
X30195Y149292D01*
X29151Y149013D01*
X28091Y148802D01*
X27019Y148661D01*
X25940Y148590D01*
X24860Y148590D01*
X23781Y148661D01*
X22709Y148802D01*
X21649Y149013D01*
X20605Y149292D01*
X19581Y149640D01*
X18583Y150054D01*
X17613Y150532D01*
X16677Y151072D01*
X15778Y151673D01*
X14921Y152331D01*
X14108Y153044D01*
X13344Y153808D01*
X12631Y154621D01*
X11973Y155478D01*
X11372Y156377D01*
X10832Y157313D01*
X10354Y158283D01*
X9940Y159281D01*
X9592Y160305D01*
X9313Y161349D01*
X9102Y162409D01*
X8961Y163481D01*
X8890Y164560D01*
X8890Y165640D01*
X8961Y166719D01*
X9102Y167791D01*
X9313Y168851D01*
X9592Y169895D01*
X9940Y170919D01*
X10354Y171917D01*
X10832Y172887D01*
X11372Y173823D01*
X11973Y174722D01*
X12631Y175579D01*
X13344Y176392D01*
X14108Y177157D01*
X14921Y177869D01*
X15778Y178527D01*
X16677Y179128D01*
X17613Y179668D01*
X18583Y180146D01*
X19581Y180560D01*
X20605Y180908D01*
X21649Y181187D01*
X22709Y181398D01*
X23781Y181539D01*
X24860Y181610D01*
X25940Y181610D01*
X25940Y511810D02*
X27019Y511739D01*
X28091Y511598D01*
X29151Y511387D01*
X30195Y511108D01*
X31219Y510760D01*
X32217Y510346D01*
X33187Y509868D01*
X34123Y509328D01*
X35022Y508727D01*
X35879Y508069D01*
X36692Y507357D01*
X37457Y506592D01*
X38169Y505779D01*
X38827Y504922D01*
X39428Y504023D01*
X39968Y503087D01*
X40446Y502117D01*
X40860Y501119D01*
X41208Y500095D01*
X41487Y499051D01*
X41698Y497991D01*
X41839Y496919D01*
X41910Y495840D01*
X41910Y494760D01*
X41839Y493681D01*
X41698Y492609D01*
X41487Y491549D01*
X41208Y490505D01*
X40860Y489481D01*
X40446Y488483D01*
X39968Y487513D01*
X39428Y486577D01*
X38827Y485678D01*
X38169Y484821D01*
X37457Y484008D01*
X36692Y483244D01*
X35879Y482531D01*
X35022Y481873D01*
X34123Y481272D01*
X33187Y480732D01*
X32217Y480254D01*
X31219Y479840D01*
X30195Y479492D01*
X29151Y479213D01*
X28091Y479002D01*
X27019Y478861D01*
X25940Y478790D01*
X24860Y478790D01*
X23781Y478861D01*
X22709Y479002D01*
X21649Y479213D01*
X20605Y479492D01*
X19581Y479840D01*
X18583Y480254D01*
X17613Y480732D01*
X16677Y481272D01*
X15778Y481873D01*
X14921Y482531D01*
X14108Y483244D01*
X13344Y484008D01*
X12631Y484821D01*
X11973Y485678D01*
X11372Y486577D01*
X10832Y487513D01*
X10354Y488483D01*
X9940Y489481D01*
X9592Y490505D01*
X9313Y491549D01*
X9102Y492609D01*
X8961Y493681D01*
X8890Y494760D01*
X8890Y495840D01*
X8961Y496919D01*
X9102Y497991D01*
X9313Y499051D01*
X9592Y500095D01*
X9940Y501119D01*
X10354Y502117D01*
X10832Y503087D01*
X11372Y504023D01*
X11973Y504922D01*
X12631Y505779D01*
X13344Y506592D01*
X14108Y507357D01*
X14921Y508069D01*
X15778Y508727D01*
X16677Y509328D01*
X17613Y509868D01*
X18583Y510346D01*
X19581Y510760D01*
X20605Y511108D01*
X21649Y511387D01*
X22709Y511598D01*
X23781Y511739D01*
X24860Y511810D01*
X25940Y511810D01*
X229140Y511810D02*
X230219Y511739D01*
X231291Y511598D01*
X232351Y511387D01*
X233395Y511108D01*
X234419Y510760D01*
X235417Y510346D01*
X236387Y509868D01*
X237323Y509328D01*
X238222Y508727D01*
X239079Y508069D01*
X239892Y507357D01*
X240657Y506592D01*
X241369Y505779D01*
X242027Y504922D01*
X242628Y504023D01*
X243168Y503087D01*
X243646Y502117D01*
X244060Y501119D01*
X244408Y500095D01*
X244687Y499051D01*
X244898Y497991D01*
X245039Y496919D01*
X245110Y495840D01*
X245110Y494760D01*
X245039Y493681D01*
X244898Y492609D01*
X244687Y491549D01*
X244408Y490505D01*
X244060Y489481D01*
X243646Y488483D01*
X243168Y487513D01*
X242628Y486577D01*
X242027Y485678D01*
X241369Y484821D01*
X240657Y484008D01*
X239892Y483244D01*
X239079Y482531D01*
X238222Y481873D01*
X237323Y481272D01*
X236387Y480732D01*
X235417Y480254D01*
X234419Y479840D01*
X233395Y479492D01*
X232351Y479213D01*
X231291Y479002D01*
X230219Y478861D01*
X229140Y478790D01*
X228060Y478790D01*
X226981Y478861D01*
X225909Y479002D01*
X224849Y479213D01*
X223805Y479492D01*
X222781Y479840D01*
X221783Y480254D01*
X220813Y480732D01*
X219877Y481272D01*
X218978Y481873D01*
X218121Y482531D01*
X217308Y483244D01*
X216544Y484008D01*
X215831Y484821D01*
X215173Y485678D01*
X214572Y486577D01*
X214032Y487513D01*
X213554Y488483D01*
X213140Y489481D01*
X212792Y490505D01*
X212513Y491549D01*
X212302Y492609D01*
X212161Y493681D01*
X212090Y494760D01*
X212090Y495840D01*
X212161Y496919D01*
X212302Y497991D01*
X212513Y499051D01*
X212792Y500095D01*
X213140Y501119D01*
X213554Y502117D01*
X214032Y503087D01*
X214572Y504023D01*
X215173Y504922D01*
X215831Y505779D01*
X216544Y506592D01*
X217308Y507357D01*
X218121Y508069D01*
X218978Y508727D01*
X219877Y509328D01*
X220813Y509868D01*
X221783Y510346D01*
X222781Y510760D01*
X223805Y511108D01*
X224849Y511387D01*
X225909Y511598D01*
X226981Y511739D01*
X228060Y511810D01*
X229140Y511810D01*
M02*
