G04 EAGLE Gerber RS-274X export*
G75*
%MOMM*%
%FSLAX34Y34*%
%LPD*%
%INSilkscreen Top*%
%IPPOS*%
%AMOC8*
5,1,8,0,0,1.08239X$1,22.5*%
G01*
%ADD10C,0.127000*%
%ADD11C,0.152400*%
%ADD12C,0.406400*%
%ADD13C,0.254000*%
%ADD14R,0.635000X2.540000*%
%ADD15C,0.447213*%
%ADD16C,0.203200*%
%ADD17C,0.101600*%
%ADD18C,0.200000*%


D10*
X516781Y653556D02*
X518122Y653556D01*
X518122Y653557D02*
X518193Y653555D01*
X518265Y653549D01*
X518335Y653540D01*
X518405Y653527D01*
X518475Y653510D01*
X518543Y653489D01*
X518610Y653465D01*
X518676Y653437D01*
X518740Y653406D01*
X518803Y653371D01*
X518863Y653333D01*
X518922Y653292D01*
X518978Y653248D01*
X519032Y653201D01*
X519083Y653152D01*
X519131Y653099D01*
X519177Y653044D01*
X519219Y652987D01*
X519259Y652927D01*
X519295Y652866D01*
X519328Y652802D01*
X519357Y652737D01*
X519383Y652671D01*
X519406Y652603D01*
X519425Y652534D01*
X519440Y652464D01*
X519451Y652394D01*
X519459Y652323D01*
X519463Y652252D01*
X519463Y652180D01*
X519459Y652109D01*
X519451Y652038D01*
X519440Y651968D01*
X519425Y651898D01*
X519406Y651829D01*
X519383Y651761D01*
X519357Y651695D01*
X519328Y651630D01*
X519295Y651566D01*
X519259Y651505D01*
X519219Y651445D01*
X519177Y651388D01*
X519131Y651333D01*
X519083Y651280D01*
X519032Y651231D01*
X518978Y651184D01*
X518922Y651140D01*
X518863Y651099D01*
X518803Y651061D01*
X518740Y651026D01*
X518676Y650995D01*
X518610Y650967D01*
X518543Y650943D01*
X518475Y650922D01*
X518405Y650905D01*
X518335Y650892D01*
X518265Y650883D01*
X518193Y650877D01*
X518122Y650875D01*
X516781Y650875D01*
X516781Y655701D01*
X518122Y655701D01*
X518187Y655699D01*
X518251Y655693D01*
X518315Y655683D01*
X518379Y655670D01*
X518441Y655652D01*
X518502Y655631D01*
X518562Y655607D01*
X518620Y655578D01*
X518677Y655546D01*
X518731Y655511D01*
X518783Y655473D01*
X518833Y655431D01*
X518880Y655387D01*
X518924Y655340D01*
X518966Y655290D01*
X519004Y655238D01*
X519039Y655184D01*
X519071Y655127D01*
X519100Y655069D01*
X519124Y655009D01*
X519145Y654948D01*
X519163Y654886D01*
X519176Y654822D01*
X519186Y654758D01*
X519192Y654694D01*
X519194Y654629D01*
X519192Y654564D01*
X519186Y654500D01*
X519176Y654436D01*
X519163Y654372D01*
X519145Y654310D01*
X519124Y654249D01*
X519100Y654189D01*
X519071Y654131D01*
X519039Y654074D01*
X519004Y654020D01*
X518966Y653968D01*
X518924Y653918D01*
X518880Y653871D01*
X518833Y653827D01*
X518783Y653785D01*
X518731Y653747D01*
X518677Y653712D01*
X518620Y653680D01*
X518562Y653651D01*
X518502Y653627D01*
X518441Y653606D01*
X518379Y653588D01*
X518315Y653575D01*
X518251Y653565D01*
X518187Y653559D01*
X518122Y653557D01*
X521938Y654629D02*
X523279Y655701D01*
X523279Y650875D01*
X524619Y650875D02*
X521938Y650875D01*
X-5856Y314922D02*
X-5856Y313581D01*
X-5857Y314922D02*
X-5855Y314993D01*
X-5849Y315065D01*
X-5840Y315135D01*
X-5827Y315205D01*
X-5810Y315275D01*
X-5789Y315343D01*
X-5765Y315410D01*
X-5737Y315476D01*
X-5706Y315540D01*
X-5671Y315603D01*
X-5633Y315663D01*
X-5592Y315722D01*
X-5548Y315778D01*
X-5501Y315832D01*
X-5452Y315883D01*
X-5399Y315931D01*
X-5344Y315977D01*
X-5287Y316019D01*
X-5227Y316059D01*
X-5166Y316095D01*
X-5102Y316128D01*
X-5037Y316157D01*
X-4971Y316183D01*
X-4903Y316206D01*
X-4834Y316225D01*
X-4764Y316240D01*
X-4694Y316251D01*
X-4623Y316259D01*
X-4552Y316263D01*
X-4480Y316263D01*
X-4409Y316259D01*
X-4338Y316251D01*
X-4268Y316240D01*
X-4198Y316225D01*
X-4129Y316206D01*
X-4061Y316183D01*
X-3995Y316157D01*
X-3930Y316128D01*
X-3866Y316095D01*
X-3805Y316059D01*
X-3745Y316019D01*
X-3688Y315977D01*
X-3633Y315931D01*
X-3580Y315883D01*
X-3531Y315832D01*
X-3484Y315778D01*
X-3440Y315722D01*
X-3399Y315663D01*
X-3361Y315603D01*
X-3326Y315540D01*
X-3295Y315476D01*
X-3267Y315410D01*
X-3243Y315343D01*
X-3222Y315275D01*
X-3205Y315205D01*
X-3192Y315135D01*
X-3183Y315065D01*
X-3177Y314993D01*
X-3175Y314922D01*
X-3175Y313581D01*
X-8001Y313581D01*
X-8001Y314922D01*
X-7999Y314987D01*
X-7993Y315051D01*
X-7983Y315115D01*
X-7970Y315179D01*
X-7952Y315241D01*
X-7931Y315302D01*
X-7907Y315362D01*
X-7878Y315420D01*
X-7846Y315477D01*
X-7811Y315531D01*
X-7773Y315583D01*
X-7731Y315633D01*
X-7687Y315680D01*
X-7640Y315724D01*
X-7590Y315766D01*
X-7538Y315804D01*
X-7484Y315839D01*
X-7427Y315871D01*
X-7369Y315900D01*
X-7309Y315924D01*
X-7248Y315945D01*
X-7186Y315963D01*
X-7122Y315976D01*
X-7058Y315986D01*
X-6994Y315992D01*
X-6929Y315994D01*
X-6864Y315992D01*
X-6800Y315986D01*
X-6736Y315976D01*
X-6672Y315963D01*
X-6610Y315945D01*
X-6549Y315924D01*
X-6489Y315900D01*
X-6431Y315871D01*
X-6374Y315839D01*
X-6320Y315804D01*
X-6268Y315766D01*
X-6218Y315724D01*
X-6171Y315680D01*
X-6127Y315633D01*
X-6085Y315583D01*
X-6047Y315531D01*
X-6012Y315477D01*
X-5980Y315420D01*
X-5951Y315362D01*
X-5927Y315302D01*
X-5906Y315241D01*
X-5888Y315179D01*
X-5875Y315115D01*
X-5865Y315051D01*
X-5859Y314987D01*
X-5857Y314922D01*
X-8001Y320213D02*
X-7999Y320281D01*
X-7993Y320348D01*
X-7984Y320415D01*
X-7971Y320482D01*
X-7954Y320547D01*
X-7933Y320612D01*
X-7909Y320675D01*
X-7881Y320737D01*
X-7850Y320797D01*
X-7816Y320855D01*
X-7778Y320911D01*
X-7738Y320966D01*
X-7694Y321017D01*
X-7647Y321066D01*
X-7598Y321113D01*
X-7547Y321157D01*
X-7492Y321197D01*
X-7436Y321235D01*
X-7378Y321269D01*
X-7318Y321300D01*
X-7256Y321328D01*
X-7193Y321352D01*
X-7128Y321373D01*
X-7063Y321390D01*
X-6996Y321403D01*
X-6929Y321412D01*
X-6862Y321418D01*
X-6794Y321420D01*
X-8001Y320213D02*
X-7999Y320135D01*
X-7993Y320057D01*
X-7983Y319980D01*
X-7970Y319903D01*
X-7952Y319827D01*
X-7931Y319752D01*
X-7906Y319678D01*
X-7877Y319606D01*
X-7845Y319535D01*
X-7809Y319466D01*
X-7770Y319398D01*
X-7727Y319333D01*
X-7681Y319270D01*
X-7632Y319209D01*
X-7580Y319151D01*
X-7525Y319096D01*
X-7468Y319043D01*
X-7408Y318994D01*
X-7345Y318947D01*
X-7280Y318904D01*
X-7214Y318864D01*
X-7145Y318827D01*
X-7074Y318794D01*
X-7002Y318764D01*
X-6929Y318738D01*
X-5856Y321017D02*
X-5905Y321066D01*
X-5957Y321113D01*
X-6012Y321156D01*
X-6069Y321197D01*
X-6128Y321235D01*
X-6189Y321269D01*
X-6252Y321300D01*
X-6316Y321328D01*
X-6382Y321352D01*
X-6448Y321372D01*
X-6516Y321389D01*
X-6585Y321402D01*
X-6654Y321411D01*
X-6724Y321417D01*
X-6794Y321419D01*
X-5856Y321017D02*
X-3175Y318738D01*
X-3175Y321419D01*
D11*
X532130Y692150D02*
X532130Y693420D01*
D12*
X533400Y731520D02*
X533400Y792480D01*
D11*
X528320Y835660D02*
X311150Y835660D01*
X532130Y831850D02*
X532130Y830580D01*
X284480Y742950D02*
X284480Y726440D01*
X284480Y781050D02*
X284480Y797560D01*
X284480Y726440D02*
X293370Y726440D01*
X307340Y692150D01*
X293370Y797560D02*
X284480Y797560D01*
X293370Y797560D02*
X293370Y777240D01*
X293370Y748030D02*
X293370Y726440D01*
D13*
X508000Y762000D02*
X523240Y762000D01*
X321310Y769620D02*
X321310Y754380D01*
X328930Y762000D02*
X313690Y762000D01*
D11*
X293370Y797560D02*
X307340Y831850D01*
X311150Y688340D02*
X528320Y688340D01*
D13*
X425450Y736600D02*
X425450Y762000D01*
D11*
X438150Y762000D02*
X457200Y762000D01*
X425450Y762000D02*
X406400Y762000D01*
D13*
X425450Y762000D02*
X425450Y787400D01*
D11*
X420370Y746760D02*
X410210Y746760D01*
X415290Y741680D02*
X415290Y751840D01*
X307340Y692150D02*
X307340Y831850D01*
X307342Y831972D01*
X307348Y832094D01*
X307358Y832216D01*
X307371Y832337D01*
X307389Y832458D01*
X307410Y832578D01*
X307436Y832698D01*
X307465Y832816D01*
X307497Y832934D01*
X307534Y833051D01*
X307574Y833166D01*
X307618Y833280D01*
X307666Y833392D01*
X307717Y833503D01*
X307772Y833612D01*
X307830Y833720D01*
X307892Y833825D01*
X307957Y833928D01*
X308025Y834030D01*
X308097Y834129D01*
X308171Y834225D01*
X308249Y834320D01*
X308330Y834411D01*
X308413Y834501D01*
X308499Y834587D01*
X308589Y834670D01*
X308680Y834751D01*
X308775Y834829D01*
X308871Y834903D01*
X308970Y834975D01*
X309072Y835043D01*
X309175Y835108D01*
X309280Y835170D01*
X309388Y835228D01*
X309497Y835283D01*
X309608Y835334D01*
X309720Y835382D01*
X309834Y835426D01*
X309949Y835466D01*
X310066Y835503D01*
X310184Y835535D01*
X310302Y835564D01*
X310422Y835590D01*
X310542Y835611D01*
X310663Y835629D01*
X310784Y835642D01*
X310906Y835652D01*
X311028Y835658D01*
X311150Y835660D01*
X307340Y692150D02*
X307342Y692028D01*
X307348Y691906D01*
X307358Y691784D01*
X307371Y691663D01*
X307389Y691542D01*
X307410Y691422D01*
X307436Y691302D01*
X307465Y691184D01*
X307497Y691066D01*
X307534Y690949D01*
X307574Y690834D01*
X307618Y690720D01*
X307666Y690608D01*
X307717Y690497D01*
X307772Y690388D01*
X307830Y690280D01*
X307892Y690175D01*
X307957Y690072D01*
X308025Y689970D01*
X308097Y689871D01*
X308171Y689775D01*
X308249Y689680D01*
X308330Y689589D01*
X308413Y689499D01*
X308499Y689413D01*
X308589Y689330D01*
X308680Y689249D01*
X308775Y689171D01*
X308871Y689097D01*
X308970Y689025D01*
X309072Y688957D01*
X309175Y688892D01*
X309280Y688830D01*
X309388Y688772D01*
X309497Y688717D01*
X309608Y688666D01*
X309720Y688618D01*
X309834Y688574D01*
X309949Y688534D01*
X310066Y688497D01*
X310184Y688465D01*
X310302Y688436D01*
X310422Y688410D01*
X310542Y688389D01*
X310663Y688371D01*
X310784Y688358D01*
X310906Y688348D01*
X311028Y688342D01*
X311150Y688340D01*
X528320Y835660D02*
X528442Y835658D01*
X528564Y835652D01*
X528686Y835642D01*
X528807Y835629D01*
X528928Y835611D01*
X529048Y835590D01*
X529168Y835564D01*
X529286Y835535D01*
X529404Y835503D01*
X529521Y835466D01*
X529636Y835426D01*
X529750Y835382D01*
X529862Y835334D01*
X529973Y835283D01*
X530082Y835228D01*
X530190Y835170D01*
X530295Y835108D01*
X530398Y835043D01*
X530500Y834975D01*
X530599Y834903D01*
X530695Y834829D01*
X530790Y834751D01*
X530881Y834670D01*
X530971Y834587D01*
X531057Y834501D01*
X531140Y834411D01*
X531221Y834320D01*
X531299Y834225D01*
X531373Y834129D01*
X531445Y834030D01*
X531513Y833928D01*
X531578Y833825D01*
X531640Y833720D01*
X531698Y833612D01*
X531753Y833503D01*
X531804Y833392D01*
X531852Y833280D01*
X531896Y833166D01*
X531936Y833051D01*
X531973Y832934D01*
X532005Y832816D01*
X532034Y832698D01*
X532060Y832578D01*
X532081Y832458D01*
X532099Y832337D01*
X532112Y832216D01*
X532122Y832094D01*
X532128Y831972D01*
X532130Y831850D01*
X532130Y692150D02*
X532128Y692028D01*
X532122Y691906D01*
X532112Y691784D01*
X532099Y691663D01*
X532081Y691542D01*
X532060Y691422D01*
X532034Y691302D01*
X532005Y691184D01*
X531973Y691066D01*
X531936Y690949D01*
X531896Y690834D01*
X531852Y690720D01*
X531804Y690608D01*
X531753Y690497D01*
X531698Y690388D01*
X531640Y690280D01*
X531578Y690175D01*
X531513Y690072D01*
X531445Y689970D01*
X531373Y689871D01*
X531299Y689775D01*
X531221Y689680D01*
X531140Y689589D01*
X531057Y689499D01*
X530971Y689413D01*
X530881Y689330D01*
X530790Y689249D01*
X530695Y689171D01*
X530599Y689097D01*
X530500Y689025D01*
X530398Y688957D01*
X530295Y688892D01*
X530190Y688830D01*
X530082Y688772D01*
X529973Y688717D01*
X529862Y688666D01*
X529750Y688618D01*
X529636Y688574D01*
X529521Y688534D01*
X529404Y688497D01*
X529286Y688465D01*
X529168Y688436D01*
X529048Y688410D01*
X528928Y688389D01*
X528807Y688371D01*
X528686Y688358D01*
X528564Y688348D01*
X528442Y688342D01*
X528320Y688340D01*
D10*
X407949Y708025D02*
X407949Y719455D01*
X407949Y708025D02*
X413029Y708025D01*
X417195Y708025D02*
X417195Y715645D01*
X416878Y718820D02*
X416878Y719455D01*
X417513Y719455D01*
X417513Y718820D01*
X416878Y718820D01*
X420901Y715645D02*
X424711Y715645D01*
X422171Y719455D02*
X422171Y709930D01*
X422173Y709845D01*
X422179Y709759D01*
X422188Y709674D01*
X422202Y709590D01*
X422219Y709506D01*
X422240Y709423D01*
X422264Y709341D01*
X422292Y709261D01*
X422324Y709181D01*
X422360Y709103D01*
X422398Y709027D01*
X422441Y708953D01*
X422486Y708881D01*
X422535Y708810D01*
X422587Y708742D01*
X422641Y708677D01*
X422699Y708614D01*
X422760Y708553D01*
X422823Y708495D01*
X422888Y708441D01*
X422956Y708389D01*
X423027Y708340D01*
X423099Y708295D01*
X423173Y708252D01*
X423249Y708214D01*
X423327Y708178D01*
X423407Y708146D01*
X423487Y708118D01*
X423569Y708094D01*
X423652Y708073D01*
X423736Y708056D01*
X423820Y708042D01*
X423905Y708033D01*
X423991Y708027D01*
X424076Y708025D01*
X424711Y708025D01*
X429514Y708025D02*
X429514Y719455D01*
X429514Y715645D02*
X432689Y715645D01*
X432774Y715643D01*
X432860Y715637D01*
X432945Y715628D01*
X433029Y715614D01*
X433113Y715597D01*
X433196Y715576D01*
X433278Y715552D01*
X433358Y715524D01*
X433438Y715492D01*
X433516Y715456D01*
X433592Y715418D01*
X433666Y715375D01*
X433738Y715330D01*
X433809Y715281D01*
X433877Y715229D01*
X433942Y715175D01*
X434005Y715117D01*
X434066Y715056D01*
X434124Y714993D01*
X434178Y714928D01*
X434230Y714860D01*
X434279Y714789D01*
X434324Y714717D01*
X434367Y714643D01*
X434405Y714567D01*
X434441Y714489D01*
X434473Y714409D01*
X434501Y714329D01*
X434525Y714247D01*
X434546Y714164D01*
X434563Y714080D01*
X434577Y713996D01*
X434586Y713911D01*
X434592Y713825D01*
X434594Y713740D01*
X434594Y708025D01*
X439674Y708025D02*
X439674Y715645D01*
X439357Y718820D02*
X439357Y719455D01*
X439992Y719455D01*
X439992Y718820D01*
X439357Y718820D01*
X444754Y715645D02*
X444754Y709930D01*
X444756Y709845D01*
X444762Y709759D01*
X444771Y709674D01*
X444785Y709590D01*
X444802Y709506D01*
X444823Y709423D01*
X444847Y709341D01*
X444875Y709261D01*
X444907Y709181D01*
X444943Y709103D01*
X444981Y709027D01*
X445024Y708953D01*
X445069Y708881D01*
X445118Y708810D01*
X445170Y708742D01*
X445224Y708677D01*
X445282Y708614D01*
X445343Y708553D01*
X445406Y708495D01*
X445471Y708441D01*
X445539Y708389D01*
X445610Y708340D01*
X445682Y708295D01*
X445756Y708252D01*
X445832Y708214D01*
X445910Y708178D01*
X445990Y708146D01*
X446070Y708118D01*
X446152Y708094D01*
X446235Y708073D01*
X446319Y708056D01*
X446403Y708042D01*
X446488Y708033D01*
X446574Y708027D01*
X446659Y708025D01*
X449834Y708025D01*
X449834Y715645D01*
X455676Y715645D02*
X455676Y708025D01*
X455676Y715645D02*
X461391Y715645D01*
X461476Y715643D01*
X461562Y715637D01*
X461647Y715628D01*
X461731Y715614D01*
X461815Y715597D01*
X461898Y715576D01*
X461980Y715552D01*
X462060Y715524D01*
X462140Y715492D01*
X462218Y715456D01*
X462294Y715418D01*
X462368Y715375D01*
X462440Y715330D01*
X462511Y715281D01*
X462579Y715229D01*
X462644Y715175D01*
X462707Y715117D01*
X462768Y715056D01*
X462826Y714993D01*
X462880Y714928D01*
X462932Y714860D01*
X462981Y714789D01*
X463026Y714717D01*
X463069Y714643D01*
X463107Y714567D01*
X463143Y714489D01*
X463175Y714409D01*
X463203Y714329D01*
X463227Y714247D01*
X463248Y714164D01*
X463265Y714080D01*
X463279Y713996D01*
X463288Y713911D01*
X463294Y713825D01*
X463296Y713740D01*
X463296Y708025D01*
X459486Y708025D02*
X459486Y715645D01*
X474980Y708025D02*
X478155Y708025D01*
X478266Y708027D01*
X478376Y708033D01*
X478487Y708042D01*
X478597Y708056D01*
X478706Y708073D01*
X478815Y708094D01*
X478923Y708119D01*
X479030Y708148D01*
X479136Y708180D01*
X479241Y708216D01*
X479344Y708256D01*
X479446Y708299D01*
X479547Y708346D01*
X479646Y708397D01*
X479743Y708450D01*
X479837Y708507D01*
X479930Y708568D01*
X480021Y708631D01*
X480110Y708698D01*
X480196Y708768D01*
X480279Y708841D01*
X480361Y708916D01*
X480439Y708994D01*
X480514Y709076D01*
X480587Y709159D01*
X480657Y709245D01*
X480724Y709334D01*
X480787Y709425D01*
X480848Y709518D01*
X480905Y709613D01*
X480958Y709709D01*
X481009Y709808D01*
X481056Y709909D01*
X481099Y710011D01*
X481139Y710114D01*
X481175Y710219D01*
X481207Y710325D01*
X481236Y710432D01*
X481261Y710540D01*
X481282Y710649D01*
X481299Y710758D01*
X481313Y710868D01*
X481322Y710979D01*
X481328Y711089D01*
X481330Y711200D01*
X481328Y711311D01*
X481322Y711421D01*
X481313Y711532D01*
X481299Y711642D01*
X481282Y711751D01*
X481261Y711860D01*
X481236Y711968D01*
X481207Y712075D01*
X481175Y712181D01*
X481139Y712286D01*
X481099Y712389D01*
X481056Y712491D01*
X481009Y712592D01*
X480958Y712691D01*
X480905Y712787D01*
X480848Y712882D01*
X480787Y712975D01*
X480724Y713066D01*
X480657Y713155D01*
X480587Y713241D01*
X480514Y713324D01*
X480439Y713406D01*
X480361Y713484D01*
X480279Y713559D01*
X480196Y713632D01*
X480110Y713702D01*
X480021Y713769D01*
X479930Y713832D01*
X479837Y713893D01*
X479743Y713950D01*
X479646Y714003D01*
X479547Y714054D01*
X479446Y714101D01*
X479344Y714144D01*
X479241Y714184D01*
X479136Y714220D01*
X479030Y714252D01*
X478923Y714281D01*
X478815Y714306D01*
X478706Y714327D01*
X478597Y714344D01*
X478487Y714358D01*
X478376Y714367D01*
X478266Y714373D01*
X478155Y714375D01*
X478790Y719455D02*
X474980Y719455D01*
X478790Y719455D02*
X478890Y719453D01*
X478989Y719447D01*
X479089Y719437D01*
X479187Y719424D01*
X479286Y719406D01*
X479383Y719385D01*
X479479Y719360D01*
X479575Y719331D01*
X479669Y719298D01*
X479762Y719262D01*
X479853Y719222D01*
X479943Y719178D01*
X480031Y719131D01*
X480117Y719081D01*
X480201Y719027D01*
X480283Y718970D01*
X480362Y718910D01*
X480440Y718846D01*
X480514Y718780D01*
X480586Y718711D01*
X480655Y718639D01*
X480721Y718565D01*
X480785Y718487D01*
X480845Y718408D01*
X480902Y718326D01*
X480956Y718242D01*
X481006Y718156D01*
X481053Y718068D01*
X481097Y717978D01*
X481137Y717887D01*
X481173Y717794D01*
X481206Y717700D01*
X481235Y717604D01*
X481260Y717508D01*
X481281Y717411D01*
X481299Y717312D01*
X481312Y717214D01*
X481322Y717114D01*
X481328Y717015D01*
X481330Y716915D01*
X481328Y716815D01*
X481322Y716716D01*
X481312Y716616D01*
X481299Y716518D01*
X481281Y716419D01*
X481260Y716322D01*
X481235Y716226D01*
X481206Y716130D01*
X481173Y716036D01*
X481137Y715943D01*
X481097Y715852D01*
X481053Y715762D01*
X481006Y715674D01*
X480956Y715588D01*
X480902Y715504D01*
X480845Y715422D01*
X480785Y715343D01*
X480721Y715265D01*
X480655Y715191D01*
X480586Y715119D01*
X480514Y715050D01*
X480440Y714984D01*
X480362Y714920D01*
X480283Y714860D01*
X480201Y714803D01*
X480117Y714749D01*
X480031Y714699D01*
X479943Y714652D01*
X479853Y714608D01*
X479762Y714568D01*
X479669Y714532D01*
X479575Y714499D01*
X479479Y714470D01*
X479383Y714445D01*
X479286Y714424D01*
X479187Y714406D01*
X479089Y714393D01*
X478989Y714383D01*
X478890Y714377D01*
X478790Y714375D01*
X476250Y714375D01*
X485775Y719455D02*
X489585Y708025D01*
X493395Y719455D01*
X415798Y807085D02*
X415898Y807087D01*
X415997Y807093D01*
X416097Y807103D01*
X416195Y807116D01*
X416294Y807134D01*
X416391Y807155D01*
X416487Y807180D01*
X416583Y807209D01*
X416677Y807242D01*
X416770Y807278D01*
X416861Y807318D01*
X416951Y807362D01*
X417039Y807409D01*
X417125Y807459D01*
X417209Y807513D01*
X417291Y807570D01*
X417370Y807630D01*
X417448Y807694D01*
X417522Y807760D01*
X417594Y807829D01*
X417663Y807901D01*
X417729Y807975D01*
X417793Y808053D01*
X417853Y808132D01*
X417910Y808214D01*
X417964Y808298D01*
X418014Y808384D01*
X418061Y808472D01*
X418105Y808562D01*
X418145Y808653D01*
X418181Y808746D01*
X418214Y808840D01*
X418243Y808936D01*
X418268Y809032D01*
X418289Y809129D01*
X418307Y809228D01*
X418320Y809326D01*
X418330Y809426D01*
X418336Y809525D01*
X418338Y809625D01*
X415798Y807085D02*
X415657Y807087D01*
X415516Y807092D01*
X415375Y807102D01*
X415234Y807115D01*
X415094Y807131D01*
X414954Y807152D01*
X414815Y807176D01*
X414676Y807204D01*
X414539Y807235D01*
X414402Y807270D01*
X414266Y807308D01*
X414131Y807350D01*
X413998Y807396D01*
X413865Y807445D01*
X413734Y807498D01*
X413605Y807554D01*
X413476Y807613D01*
X413350Y807676D01*
X413225Y807742D01*
X413102Y807811D01*
X412981Y807884D01*
X412862Y807960D01*
X412744Y808039D01*
X412629Y808120D01*
X412517Y808205D01*
X412406Y808293D01*
X412298Y808384D01*
X412192Y808477D01*
X412089Y808574D01*
X411988Y808673D01*
X412306Y815975D02*
X412308Y816075D01*
X412314Y816174D01*
X412324Y816274D01*
X412337Y816372D01*
X412355Y816471D01*
X412376Y816568D01*
X412401Y816664D01*
X412430Y816760D01*
X412463Y816854D01*
X412499Y816947D01*
X412539Y817038D01*
X412583Y817128D01*
X412630Y817216D01*
X412680Y817302D01*
X412734Y817386D01*
X412791Y817468D01*
X412851Y817547D01*
X412915Y817625D01*
X412981Y817699D01*
X413050Y817771D01*
X413122Y817840D01*
X413196Y817906D01*
X413274Y817970D01*
X413353Y818030D01*
X413435Y818087D01*
X413519Y818141D01*
X413605Y818191D01*
X413693Y818238D01*
X413783Y818282D01*
X413874Y818322D01*
X413967Y818358D01*
X414061Y818391D01*
X414157Y818420D01*
X414253Y818445D01*
X414350Y818466D01*
X414449Y818484D01*
X414547Y818497D01*
X414647Y818507D01*
X414746Y818513D01*
X414846Y818515D01*
X414846Y818516D02*
X414979Y818514D01*
X415112Y818509D01*
X415245Y818499D01*
X415378Y818486D01*
X415510Y818469D01*
X415642Y818449D01*
X415773Y818425D01*
X415903Y818397D01*
X416033Y818366D01*
X416161Y818331D01*
X416289Y818292D01*
X416415Y818250D01*
X416540Y818204D01*
X416664Y818155D01*
X416787Y818103D01*
X416908Y818047D01*
X417027Y817987D01*
X417145Y817925D01*
X417260Y817859D01*
X417374Y817790D01*
X417486Y817717D01*
X417596Y817642D01*
X417704Y817563D01*
X413575Y813752D02*
X413491Y813804D01*
X413408Y813859D01*
X413328Y813918D01*
X413250Y813979D01*
X413175Y814043D01*
X413102Y814111D01*
X413031Y814181D01*
X412964Y814253D01*
X412899Y814328D01*
X412837Y814406D01*
X412778Y814486D01*
X412722Y814568D01*
X412670Y814652D01*
X412621Y814738D01*
X412575Y814826D01*
X412532Y814916D01*
X412493Y815007D01*
X412458Y815100D01*
X412426Y815194D01*
X412398Y815289D01*
X412373Y815385D01*
X412353Y815482D01*
X412335Y815580D01*
X412322Y815678D01*
X412313Y815777D01*
X412307Y815876D01*
X412305Y815975D01*
X417068Y811848D02*
X417152Y811796D01*
X417235Y811741D01*
X417315Y811682D01*
X417393Y811621D01*
X417468Y811557D01*
X417541Y811489D01*
X417612Y811419D01*
X417679Y811347D01*
X417744Y811272D01*
X417806Y811194D01*
X417865Y811114D01*
X417921Y811032D01*
X417973Y810948D01*
X418022Y810862D01*
X418068Y810774D01*
X418111Y810684D01*
X418150Y810593D01*
X418185Y810500D01*
X418217Y810406D01*
X418245Y810311D01*
X418270Y810215D01*
X418290Y810118D01*
X418308Y810020D01*
X418321Y809922D01*
X418330Y809823D01*
X418336Y809724D01*
X418338Y809625D01*
X417068Y811848D02*
X413576Y813753D01*
X423443Y818515D02*
X423443Y807085D01*
X428523Y807085D01*
X432943Y815975D02*
X436118Y818515D01*
X436118Y807085D01*
X432943Y807085D02*
X439293Y807085D01*
X443865Y805815D02*
X448945Y819785D01*
X457010Y818516D02*
X457114Y818514D01*
X457219Y818508D01*
X457323Y818499D01*
X457426Y818486D01*
X457529Y818468D01*
X457631Y818448D01*
X457733Y818423D01*
X457833Y818395D01*
X457933Y818363D01*
X458031Y818327D01*
X458128Y818288D01*
X458223Y818246D01*
X458317Y818200D01*
X458409Y818150D01*
X458499Y818098D01*
X458587Y818042D01*
X458673Y817982D01*
X458757Y817920D01*
X458838Y817855D01*
X458917Y817787D01*
X458994Y817715D01*
X459067Y817642D01*
X459139Y817565D01*
X459207Y817486D01*
X459272Y817405D01*
X459334Y817321D01*
X459394Y817235D01*
X459450Y817147D01*
X459502Y817057D01*
X459552Y816965D01*
X459598Y816871D01*
X459640Y816776D01*
X459679Y816679D01*
X459715Y816581D01*
X459747Y816481D01*
X459775Y816381D01*
X459800Y816279D01*
X459820Y816177D01*
X459838Y816074D01*
X459851Y815971D01*
X459860Y815867D01*
X459866Y815762D01*
X459868Y815658D01*
X457010Y818515D02*
X456892Y818513D01*
X456773Y818507D01*
X456655Y818498D01*
X456538Y818485D01*
X456421Y818467D01*
X456304Y818447D01*
X456188Y818422D01*
X456073Y818394D01*
X455960Y818361D01*
X455847Y818326D01*
X455735Y818286D01*
X455625Y818244D01*
X455516Y818197D01*
X455408Y818147D01*
X455303Y818094D01*
X455199Y818037D01*
X455097Y817977D01*
X454997Y817914D01*
X454899Y817847D01*
X454803Y817778D01*
X454710Y817705D01*
X454619Y817629D01*
X454530Y817551D01*
X454444Y817469D01*
X454361Y817385D01*
X454280Y817299D01*
X454203Y817209D01*
X454128Y817118D01*
X454056Y817024D01*
X453987Y816927D01*
X453922Y816829D01*
X453859Y816728D01*
X453800Y816625D01*
X453744Y816521D01*
X453692Y816415D01*
X453643Y816307D01*
X453598Y816198D01*
X453556Y816087D01*
X453518Y815975D01*
X458915Y813436D02*
X458991Y813511D01*
X459066Y813590D01*
X459137Y813671D01*
X459206Y813755D01*
X459271Y813841D01*
X459333Y813929D01*
X459393Y814019D01*
X459449Y814111D01*
X459502Y814206D01*
X459551Y814302D01*
X459597Y814400D01*
X459640Y814499D01*
X459679Y814600D01*
X459714Y814702D01*
X459746Y814805D01*
X459774Y814909D01*
X459799Y815014D01*
X459820Y815121D01*
X459837Y815227D01*
X459850Y815334D01*
X459859Y815442D01*
X459865Y815550D01*
X459867Y815658D01*
X458915Y813435D02*
X453517Y807085D01*
X459867Y807085D01*
X465519Y807085D02*
X465519Y818515D01*
X468694Y818515D01*
X468805Y818513D01*
X468915Y818507D01*
X469026Y818498D01*
X469136Y818484D01*
X469245Y818467D01*
X469354Y818446D01*
X469462Y818421D01*
X469569Y818392D01*
X469675Y818360D01*
X469780Y818324D01*
X469883Y818284D01*
X469985Y818241D01*
X470086Y818194D01*
X470185Y818143D01*
X470282Y818090D01*
X470376Y818033D01*
X470469Y817972D01*
X470560Y817909D01*
X470649Y817842D01*
X470735Y817772D01*
X470818Y817699D01*
X470900Y817624D01*
X470978Y817546D01*
X471053Y817464D01*
X471126Y817381D01*
X471196Y817295D01*
X471263Y817206D01*
X471326Y817115D01*
X471387Y817022D01*
X471444Y816927D01*
X471497Y816831D01*
X471548Y816732D01*
X471595Y816631D01*
X471638Y816529D01*
X471678Y816426D01*
X471714Y816321D01*
X471746Y816215D01*
X471775Y816108D01*
X471800Y816000D01*
X471821Y815891D01*
X471838Y815782D01*
X471852Y815672D01*
X471861Y815561D01*
X471867Y815451D01*
X471869Y815340D01*
X471867Y815229D01*
X471861Y815119D01*
X471852Y815008D01*
X471838Y814898D01*
X471821Y814789D01*
X471800Y814680D01*
X471775Y814572D01*
X471746Y814465D01*
X471714Y814359D01*
X471678Y814254D01*
X471638Y814151D01*
X471595Y814049D01*
X471548Y813948D01*
X471497Y813849D01*
X471444Y813753D01*
X471387Y813658D01*
X471326Y813565D01*
X471263Y813474D01*
X471196Y813385D01*
X471126Y813299D01*
X471053Y813216D01*
X470978Y813134D01*
X470900Y813056D01*
X470818Y812981D01*
X470735Y812908D01*
X470649Y812838D01*
X470560Y812771D01*
X470469Y812708D01*
X470376Y812647D01*
X470282Y812590D01*
X470185Y812537D01*
X470086Y812486D01*
X469985Y812439D01*
X469883Y812396D01*
X469780Y812356D01*
X469675Y812320D01*
X469569Y812288D01*
X469462Y812259D01*
X469354Y812234D01*
X469245Y812213D01*
X469136Y812196D01*
X469026Y812182D01*
X468915Y812173D01*
X468805Y812167D01*
X468694Y812165D01*
X465519Y812165D01*
X478790Y807085D02*
X478790Y818515D01*
X475615Y818515D02*
X481965Y818515D01*
D14*
X434975Y762000D03*
D10*
X169500Y771300D02*
X169500Y727300D01*
X211500Y727300D01*
X211500Y771300D01*
X169500Y771300D01*
D15*
X174500Y766300D03*
D16*
X850900Y82550D02*
X850900Y69850D01*
X850900Y82550D02*
X857250Y88900D01*
X869950Y88900D02*
X876300Y82550D01*
X857250Y88900D02*
X850900Y95250D01*
X850900Y107950D01*
X857250Y114300D01*
X869950Y114300D02*
X876300Y107950D01*
X876300Y95250D01*
X869950Y88900D01*
X869950Y63500D02*
X857250Y63500D01*
X850900Y69850D01*
X869950Y63500D02*
X876300Y69850D01*
X876300Y82550D01*
X869950Y114300D02*
X857250Y114300D01*
X63500Y717550D02*
X63500Y730250D01*
X69850Y736600D01*
X82550Y736600D02*
X88900Y730250D01*
X69850Y736600D02*
X63500Y742950D01*
X63500Y755650D01*
X69850Y762000D01*
X82550Y762000D02*
X88900Y755650D01*
X88900Y742950D01*
X82550Y736600D01*
X82550Y711200D02*
X69850Y711200D01*
X63500Y717550D01*
X82550Y711200D02*
X88900Y717550D01*
X88900Y730250D01*
X82550Y762000D02*
X69850Y762000D01*
D10*
X60523Y713444D02*
X56769Y713444D01*
X60523Y713443D02*
X60588Y713441D01*
X60652Y713435D01*
X60716Y713425D01*
X60780Y713412D01*
X60842Y713394D01*
X60903Y713373D01*
X60963Y713349D01*
X61021Y713320D01*
X61078Y713288D01*
X61132Y713253D01*
X61184Y713215D01*
X61234Y713173D01*
X61281Y713129D01*
X61325Y713082D01*
X61367Y713032D01*
X61405Y712980D01*
X61440Y712926D01*
X61472Y712869D01*
X61501Y712811D01*
X61525Y712751D01*
X61546Y712690D01*
X61564Y712628D01*
X61577Y712564D01*
X61587Y712500D01*
X61593Y712436D01*
X61595Y712371D01*
X61595Y711835D01*
X61595Y716392D02*
X61595Y718000D01*
X61593Y718065D01*
X61587Y718129D01*
X61577Y718193D01*
X61564Y718257D01*
X61546Y718319D01*
X61525Y718380D01*
X61501Y718440D01*
X61472Y718498D01*
X61440Y718555D01*
X61405Y718609D01*
X61367Y718661D01*
X61325Y718711D01*
X61281Y718758D01*
X61234Y718802D01*
X61184Y718844D01*
X61132Y718882D01*
X61078Y718917D01*
X61021Y718949D01*
X60963Y718978D01*
X60903Y719002D01*
X60842Y719023D01*
X60780Y719041D01*
X60716Y719054D01*
X60652Y719064D01*
X60588Y719070D01*
X60523Y719072D01*
X60523Y719073D02*
X59986Y719073D01*
X59986Y719072D02*
X59921Y719070D01*
X59857Y719064D01*
X59793Y719054D01*
X59729Y719041D01*
X59667Y719023D01*
X59606Y719002D01*
X59546Y718978D01*
X59488Y718949D01*
X59431Y718917D01*
X59377Y718882D01*
X59325Y718844D01*
X59275Y718802D01*
X59228Y718758D01*
X59184Y718711D01*
X59142Y718661D01*
X59104Y718609D01*
X59069Y718555D01*
X59037Y718498D01*
X59008Y718440D01*
X58984Y718380D01*
X58963Y718319D01*
X58945Y718257D01*
X58932Y718193D01*
X58922Y718129D01*
X58916Y718065D01*
X58914Y718000D01*
X58914Y716392D01*
X56769Y716392D01*
X56769Y719073D01*
D16*
X939800Y107950D02*
X939800Y95250D01*
X933450Y88900D01*
X920750Y88900D02*
X914400Y95250D01*
X933450Y88900D02*
X939800Y82550D01*
X939800Y69850D01*
X933450Y63500D01*
X920750Y63500D02*
X914400Y69850D01*
X914400Y82550D01*
X920750Y88900D01*
X920750Y114300D02*
X933450Y114300D01*
X939800Y107950D01*
X920750Y114300D02*
X914400Y107950D01*
X914400Y95250D01*
X920750Y63500D02*
X933450Y63500D01*
D11*
X869950Y317500D02*
X857250Y317500D01*
X869950Y317500D02*
X876300Y311150D01*
X876300Y298450D02*
X869950Y292100D01*
X876300Y311150D02*
X882650Y317500D01*
X895350Y317500D01*
X901700Y311150D01*
X901700Y298450D02*
X895350Y292100D01*
X882650Y292100D01*
X876300Y298450D01*
X850900Y298450D02*
X850900Y311150D01*
X857250Y317500D01*
X850900Y298450D02*
X857250Y292100D01*
X869950Y292100D01*
X901700Y311150D02*
X908050Y317500D01*
X920750Y317500D01*
X927100Y311150D01*
X927100Y298450D02*
X920750Y292100D01*
X908050Y292100D01*
X901700Y298450D01*
X927100Y298450D02*
X927100Y311150D01*
D10*
X842010Y310515D02*
X838835Y307975D01*
X842010Y310515D02*
X842010Y299085D01*
X838835Y299085D02*
X845185Y299085D01*
X842645Y321945D02*
X842745Y321947D01*
X842844Y321953D01*
X842944Y321963D01*
X843042Y321976D01*
X843141Y321994D01*
X843238Y322015D01*
X843334Y322040D01*
X843430Y322069D01*
X843524Y322102D01*
X843617Y322138D01*
X843708Y322178D01*
X843798Y322222D01*
X843886Y322269D01*
X843972Y322319D01*
X844056Y322373D01*
X844138Y322430D01*
X844217Y322490D01*
X844295Y322554D01*
X844369Y322620D01*
X844441Y322689D01*
X844510Y322761D01*
X844576Y322835D01*
X844640Y322913D01*
X844700Y322992D01*
X844757Y323074D01*
X844811Y323158D01*
X844861Y323244D01*
X844908Y323332D01*
X844952Y323422D01*
X844992Y323513D01*
X845028Y323606D01*
X845061Y323700D01*
X845090Y323796D01*
X845115Y323892D01*
X845136Y323989D01*
X845154Y324088D01*
X845167Y324186D01*
X845177Y324286D01*
X845183Y324385D01*
X845185Y324485D01*
X842645Y321945D02*
X842504Y321947D01*
X842363Y321952D01*
X842222Y321962D01*
X842081Y321975D01*
X841941Y321991D01*
X841801Y322012D01*
X841662Y322036D01*
X841523Y322064D01*
X841386Y322095D01*
X841249Y322130D01*
X841113Y322168D01*
X840978Y322210D01*
X840845Y322256D01*
X840712Y322305D01*
X840581Y322358D01*
X840452Y322414D01*
X840323Y322473D01*
X840197Y322536D01*
X840072Y322602D01*
X839949Y322671D01*
X839828Y322744D01*
X839709Y322820D01*
X839591Y322899D01*
X839476Y322980D01*
X839364Y323065D01*
X839253Y323153D01*
X839145Y323244D01*
X839039Y323337D01*
X838936Y323434D01*
X838835Y323533D01*
X839153Y330835D02*
X839155Y330935D01*
X839161Y331034D01*
X839171Y331134D01*
X839184Y331232D01*
X839202Y331331D01*
X839223Y331428D01*
X839248Y331524D01*
X839277Y331620D01*
X839310Y331714D01*
X839346Y331807D01*
X839386Y331898D01*
X839430Y331988D01*
X839477Y332076D01*
X839527Y332162D01*
X839581Y332246D01*
X839638Y332328D01*
X839698Y332407D01*
X839762Y332485D01*
X839828Y332559D01*
X839897Y332631D01*
X839969Y332700D01*
X840043Y332766D01*
X840121Y332830D01*
X840200Y332890D01*
X840282Y332947D01*
X840366Y333001D01*
X840452Y333051D01*
X840540Y333098D01*
X840630Y333142D01*
X840721Y333182D01*
X840814Y333218D01*
X840908Y333251D01*
X841004Y333280D01*
X841100Y333305D01*
X841197Y333326D01*
X841296Y333344D01*
X841394Y333357D01*
X841494Y333367D01*
X841593Y333373D01*
X841693Y333375D01*
X841693Y333376D02*
X841826Y333374D01*
X841959Y333369D01*
X842092Y333359D01*
X842225Y333346D01*
X842357Y333329D01*
X842489Y333309D01*
X842620Y333285D01*
X842750Y333257D01*
X842880Y333226D01*
X843008Y333191D01*
X843136Y333152D01*
X843262Y333110D01*
X843387Y333064D01*
X843511Y333015D01*
X843634Y332963D01*
X843755Y332907D01*
X843874Y332847D01*
X843992Y332785D01*
X844107Y332719D01*
X844221Y332650D01*
X844333Y332577D01*
X844443Y332502D01*
X844551Y332423D01*
X840422Y328612D02*
X840338Y328664D01*
X840255Y328719D01*
X840175Y328778D01*
X840097Y328839D01*
X840022Y328903D01*
X839949Y328971D01*
X839878Y329041D01*
X839811Y329113D01*
X839746Y329188D01*
X839684Y329266D01*
X839625Y329346D01*
X839569Y329428D01*
X839517Y329512D01*
X839468Y329598D01*
X839422Y329686D01*
X839379Y329776D01*
X839340Y329867D01*
X839305Y329960D01*
X839273Y330054D01*
X839245Y330149D01*
X839220Y330245D01*
X839200Y330342D01*
X839182Y330440D01*
X839169Y330538D01*
X839160Y330637D01*
X839154Y330736D01*
X839152Y330835D01*
X843915Y326708D02*
X843999Y326656D01*
X844082Y326601D01*
X844162Y326542D01*
X844240Y326481D01*
X844315Y326417D01*
X844388Y326349D01*
X844459Y326279D01*
X844526Y326207D01*
X844591Y326132D01*
X844653Y326054D01*
X844712Y325974D01*
X844768Y325892D01*
X844820Y325808D01*
X844869Y325722D01*
X844915Y325634D01*
X844958Y325544D01*
X844997Y325453D01*
X845032Y325360D01*
X845064Y325266D01*
X845092Y325171D01*
X845117Y325075D01*
X845137Y324978D01*
X845155Y324880D01*
X845168Y324782D01*
X845177Y324683D01*
X845183Y324584D01*
X845185Y324485D01*
X843915Y326708D02*
X840423Y328613D01*
X849249Y333375D02*
X853059Y321945D01*
X856869Y333375D01*
X861314Y321945D02*
X864489Y321945D01*
X864600Y321947D01*
X864710Y321953D01*
X864821Y321962D01*
X864931Y321976D01*
X865040Y321993D01*
X865149Y322014D01*
X865257Y322039D01*
X865364Y322068D01*
X865470Y322100D01*
X865575Y322136D01*
X865678Y322176D01*
X865780Y322219D01*
X865881Y322266D01*
X865980Y322317D01*
X866077Y322370D01*
X866171Y322427D01*
X866264Y322488D01*
X866355Y322551D01*
X866444Y322618D01*
X866530Y322688D01*
X866613Y322761D01*
X866695Y322836D01*
X866773Y322914D01*
X866848Y322996D01*
X866921Y323079D01*
X866991Y323165D01*
X867058Y323254D01*
X867121Y323345D01*
X867182Y323438D01*
X867239Y323532D01*
X867292Y323629D01*
X867343Y323728D01*
X867390Y323829D01*
X867433Y323931D01*
X867473Y324034D01*
X867509Y324139D01*
X867541Y324245D01*
X867570Y324352D01*
X867595Y324460D01*
X867616Y324569D01*
X867633Y324678D01*
X867647Y324788D01*
X867656Y324899D01*
X867662Y325009D01*
X867664Y325120D01*
X867662Y325231D01*
X867656Y325341D01*
X867647Y325452D01*
X867633Y325562D01*
X867616Y325671D01*
X867595Y325780D01*
X867570Y325888D01*
X867541Y325995D01*
X867509Y326101D01*
X867473Y326206D01*
X867433Y326309D01*
X867390Y326411D01*
X867343Y326512D01*
X867292Y326611D01*
X867239Y326707D01*
X867182Y326802D01*
X867121Y326895D01*
X867058Y326986D01*
X866991Y327075D01*
X866921Y327161D01*
X866848Y327244D01*
X866773Y327326D01*
X866695Y327404D01*
X866613Y327479D01*
X866530Y327552D01*
X866444Y327622D01*
X866355Y327689D01*
X866264Y327752D01*
X866171Y327813D01*
X866077Y327870D01*
X865980Y327923D01*
X865881Y327974D01*
X865780Y328021D01*
X865678Y328064D01*
X865575Y328104D01*
X865470Y328140D01*
X865364Y328172D01*
X865257Y328201D01*
X865149Y328226D01*
X865040Y328247D01*
X864931Y328264D01*
X864821Y328278D01*
X864710Y328287D01*
X864600Y328293D01*
X864489Y328295D01*
X865124Y333375D02*
X861314Y333375D01*
X865124Y333375D02*
X865224Y333373D01*
X865323Y333367D01*
X865423Y333357D01*
X865521Y333344D01*
X865620Y333326D01*
X865717Y333305D01*
X865813Y333280D01*
X865909Y333251D01*
X866003Y333218D01*
X866096Y333182D01*
X866187Y333142D01*
X866277Y333098D01*
X866365Y333051D01*
X866451Y333001D01*
X866535Y332947D01*
X866617Y332890D01*
X866696Y332830D01*
X866774Y332766D01*
X866848Y332700D01*
X866920Y332631D01*
X866989Y332559D01*
X867055Y332485D01*
X867119Y332407D01*
X867179Y332328D01*
X867236Y332246D01*
X867290Y332162D01*
X867340Y332076D01*
X867387Y331988D01*
X867431Y331898D01*
X867471Y331807D01*
X867507Y331714D01*
X867540Y331620D01*
X867569Y331524D01*
X867594Y331428D01*
X867615Y331331D01*
X867633Y331232D01*
X867646Y331134D01*
X867656Y331034D01*
X867662Y330935D01*
X867664Y330835D01*
X867662Y330735D01*
X867656Y330636D01*
X867646Y330536D01*
X867633Y330438D01*
X867615Y330339D01*
X867594Y330242D01*
X867569Y330146D01*
X867540Y330050D01*
X867507Y329956D01*
X867471Y329863D01*
X867431Y329772D01*
X867387Y329682D01*
X867340Y329594D01*
X867290Y329508D01*
X867236Y329424D01*
X867179Y329342D01*
X867119Y329263D01*
X867055Y329185D01*
X866989Y329111D01*
X866920Y329039D01*
X866848Y328970D01*
X866774Y328904D01*
X866696Y328840D01*
X866617Y328780D01*
X866535Y328723D01*
X866451Y328669D01*
X866365Y328619D01*
X866277Y328572D01*
X866187Y328528D01*
X866096Y328488D01*
X866003Y328452D01*
X865909Y328419D01*
X865813Y328390D01*
X865717Y328365D01*
X865620Y328344D01*
X865521Y328326D01*
X865423Y328313D01*
X865323Y328303D01*
X865224Y328297D01*
X865124Y328295D01*
X862584Y328295D01*
D11*
X850900Y546100D02*
X876300Y546100D01*
X850900Y546100D02*
X850900Y523240D01*
X853440Y520700D01*
X850900Y518160D01*
X850900Y497840D01*
X853440Y495300D01*
X850900Y492760D01*
X850900Y472440D01*
X853440Y469900D01*
X850900Y467360D01*
X850900Y447040D01*
X853440Y444500D01*
X850900Y441960D01*
X850900Y421640D01*
X850900Y416560D02*
X850900Y393700D01*
X876300Y393700D01*
X876300Y416560D01*
X876300Y421640D02*
X876300Y441960D01*
X873760Y444500D01*
X876300Y447040D01*
X876300Y467360D01*
X873760Y469900D01*
X876300Y472440D01*
X876300Y492760D01*
X873760Y495300D01*
X876300Y497840D01*
X876300Y518160D01*
X873760Y520700D01*
X876300Y523240D01*
X876300Y546100D01*
X873760Y419100D02*
X876300Y416560D01*
X873760Y419100D02*
X876300Y421640D01*
X853440Y419100D02*
X850900Y416560D01*
X853440Y419100D02*
X850900Y421640D01*
D10*
X882015Y531495D02*
X879475Y534670D01*
X890905Y534670D01*
X890905Y531495D02*
X890905Y537845D01*
X884555Y408305D02*
X884555Y404495D01*
X884555Y408305D02*
X884557Y408405D01*
X884563Y408504D01*
X884573Y408604D01*
X884586Y408702D01*
X884604Y408801D01*
X884625Y408898D01*
X884650Y408994D01*
X884679Y409090D01*
X884712Y409184D01*
X884748Y409277D01*
X884788Y409368D01*
X884832Y409458D01*
X884879Y409546D01*
X884929Y409632D01*
X884983Y409716D01*
X885040Y409798D01*
X885100Y409877D01*
X885164Y409955D01*
X885230Y410029D01*
X885299Y410101D01*
X885371Y410170D01*
X885445Y410236D01*
X885523Y410300D01*
X885602Y410360D01*
X885684Y410417D01*
X885768Y410471D01*
X885854Y410521D01*
X885942Y410568D01*
X886032Y410612D01*
X886123Y410652D01*
X886216Y410688D01*
X886310Y410721D01*
X886406Y410750D01*
X886502Y410775D01*
X886599Y410796D01*
X886698Y410814D01*
X886796Y410827D01*
X886896Y410837D01*
X886995Y410843D01*
X887095Y410845D01*
X887730Y410845D01*
X887841Y410843D01*
X887951Y410837D01*
X888062Y410828D01*
X888172Y410814D01*
X888281Y410797D01*
X888390Y410776D01*
X888498Y410751D01*
X888605Y410722D01*
X888711Y410690D01*
X888816Y410654D01*
X888919Y410614D01*
X889021Y410571D01*
X889122Y410524D01*
X889221Y410473D01*
X889318Y410420D01*
X889412Y410363D01*
X889505Y410302D01*
X889596Y410239D01*
X889685Y410172D01*
X889771Y410102D01*
X889854Y410029D01*
X889936Y409954D01*
X890014Y409876D01*
X890089Y409794D01*
X890162Y409711D01*
X890232Y409625D01*
X890299Y409536D01*
X890362Y409445D01*
X890423Y409352D01*
X890480Y409257D01*
X890533Y409161D01*
X890584Y409062D01*
X890631Y408961D01*
X890674Y408859D01*
X890714Y408756D01*
X890750Y408651D01*
X890782Y408545D01*
X890811Y408438D01*
X890836Y408330D01*
X890857Y408221D01*
X890874Y408112D01*
X890888Y408002D01*
X890897Y407891D01*
X890903Y407781D01*
X890905Y407670D01*
X890903Y407559D01*
X890897Y407449D01*
X890888Y407338D01*
X890874Y407228D01*
X890857Y407119D01*
X890836Y407010D01*
X890811Y406902D01*
X890782Y406795D01*
X890750Y406689D01*
X890714Y406584D01*
X890674Y406481D01*
X890631Y406379D01*
X890584Y406278D01*
X890533Y406179D01*
X890480Y406082D01*
X890423Y405988D01*
X890362Y405895D01*
X890299Y405804D01*
X890232Y405715D01*
X890162Y405629D01*
X890089Y405546D01*
X890014Y405464D01*
X889936Y405386D01*
X889854Y405311D01*
X889771Y405238D01*
X889685Y405168D01*
X889596Y405101D01*
X889505Y405038D01*
X889412Y404977D01*
X889318Y404920D01*
X889221Y404867D01*
X889122Y404816D01*
X889021Y404769D01*
X888919Y404726D01*
X888816Y404686D01*
X888711Y404650D01*
X888605Y404618D01*
X888498Y404589D01*
X888390Y404564D01*
X888281Y404543D01*
X888172Y404526D01*
X888062Y404512D01*
X887951Y404503D01*
X887841Y404497D01*
X887730Y404495D01*
X884555Y404495D01*
X884415Y404497D01*
X884275Y404503D01*
X884135Y404512D01*
X883996Y404526D01*
X883857Y404543D01*
X883719Y404564D01*
X883581Y404589D01*
X883444Y404618D01*
X883308Y404650D01*
X883173Y404687D01*
X883039Y404727D01*
X882906Y404770D01*
X882774Y404818D01*
X882643Y404868D01*
X882514Y404923D01*
X882387Y404981D01*
X882261Y405042D01*
X882137Y405107D01*
X882015Y405176D01*
X881895Y405247D01*
X881777Y405322D01*
X881660Y405400D01*
X881546Y405482D01*
X881435Y405566D01*
X881326Y405654D01*
X881219Y405744D01*
X881114Y405838D01*
X881013Y405934D01*
X880914Y406033D01*
X880818Y406134D01*
X880724Y406239D01*
X880634Y406346D01*
X880546Y406455D01*
X880462Y406566D01*
X880380Y406680D01*
X880302Y406797D01*
X880227Y406915D01*
X880156Y407035D01*
X880087Y407157D01*
X880022Y407281D01*
X879961Y407407D01*
X879903Y407534D01*
X879848Y407663D01*
X879798Y407794D01*
X879750Y407926D01*
X879707Y408059D01*
X879667Y408193D01*
X879630Y408328D01*
X879598Y408464D01*
X879569Y408601D01*
X879544Y408739D01*
X879523Y408877D01*
X879506Y409016D01*
X879492Y409155D01*
X879483Y409295D01*
X879477Y409435D01*
X879475Y409575D01*
X871700Y664050D02*
X576100Y664050D01*
X576100Y836850D01*
X871700Y836850D01*
X871700Y664050D01*
D17*
X830542Y743564D02*
X818858Y743564D01*
X830542Y742266D02*
X830542Y744862D01*
X818858Y744862D02*
X818858Y742266D01*
X818858Y749843D02*
X830542Y749843D01*
X830542Y756334D02*
X818858Y749843D01*
X818858Y756334D02*
X830542Y756334D01*
X625696Y734624D02*
X620504Y734624D01*
X620391Y734626D01*
X620278Y734632D01*
X620165Y734642D01*
X620052Y734656D01*
X619940Y734673D01*
X619829Y734695D01*
X619719Y734720D01*
X619609Y734750D01*
X619501Y734783D01*
X619394Y734820D01*
X619288Y734860D01*
X619184Y734905D01*
X619081Y734953D01*
X618980Y735004D01*
X618881Y735059D01*
X618784Y735117D01*
X618689Y735179D01*
X618596Y735244D01*
X618506Y735312D01*
X618418Y735383D01*
X618332Y735458D01*
X618249Y735535D01*
X618169Y735615D01*
X618092Y735698D01*
X618017Y735784D01*
X617946Y735872D01*
X617878Y735962D01*
X617813Y736055D01*
X617751Y736150D01*
X617693Y736247D01*
X617638Y736346D01*
X617587Y736447D01*
X617539Y736550D01*
X617494Y736654D01*
X617454Y736760D01*
X617417Y736867D01*
X617384Y736975D01*
X617354Y737085D01*
X617329Y737195D01*
X617307Y737306D01*
X617290Y737418D01*
X617276Y737531D01*
X617266Y737644D01*
X617260Y737757D01*
X617258Y737870D01*
X617260Y737983D01*
X617266Y738096D01*
X617276Y738209D01*
X617290Y738322D01*
X617307Y738434D01*
X617329Y738545D01*
X617354Y738655D01*
X617384Y738765D01*
X617417Y738873D01*
X617454Y738980D01*
X617494Y739086D01*
X617539Y739190D01*
X617587Y739293D01*
X617638Y739394D01*
X617693Y739493D01*
X617751Y739590D01*
X617813Y739685D01*
X617878Y739778D01*
X617946Y739868D01*
X618017Y739956D01*
X618092Y740042D01*
X618169Y740125D01*
X618249Y740205D01*
X618332Y740282D01*
X618418Y740357D01*
X618506Y740428D01*
X618596Y740496D01*
X618689Y740561D01*
X618784Y740623D01*
X618881Y740681D01*
X618980Y740736D01*
X619081Y740787D01*
X619184Y740835D01*
X619288Y740880D01*
X619394Y740920D01*
X619501Y740957D01*
X619609Y740990D01*
X619719Y741020D01*
X619829Y741045D01*
X619940Y741067D01*
X620052Y741084D01*
X620165Y741098D01*
X620278Y741108D01*
X620391Y741114D01*
X620504Y741116D01*
X625696Y741116D01*
X625809Y741114D01*
X625922Y741108D01*
X626035Y741098D01*
X626148Y741084D01*
X626260Y741067D01*
X626371Y741045D01*
X626481Y741020D01*
X626591Y740990D01*
X626699Y740957D01*
X626806Y740920D01*
X626912Y740880D01*
X627016Y740835D01*
X627119Y740787D01*
X627220Y740736D01*
X627319Y740681D01*
X627416Y740623D01*
X627511Y740561D01*
X627604Y740496D01*
X627694Y740428D01*
X627782Y740357D01*
X627868Y740282D01*
X627951Y740205D01*
X628031Y740125D01*
X628108Y740042D01*
X628183Y739956D01*
X628254Y739868D01*
X628322Y739778D01*
X628387Y739685D01*
X628449Y739590D01*
X628507Y739493D01*
X628562Y739394D01*
X628613Y739293D01*
X628661Y739190D01*
X628706Y739086D01*
X628746Y738980D01*
X628783Y738873D01*
X628816Y738765D01*
X628846Y738655D01*
X628871Y738545D01*
X628893Y738434D01*
X628910Y738322D01*
X628924Y738209D01*
X628934Y738096D01*
X628940Y737983D01*
X628942Y737870D01*
X628940Y737757D01*
X628934Y737644D01*
X628924Y737531D01*
X628910Y737418D01*
X628893Y737306D01*
X628871Y737195D01*
X628846Y737085D01*
X628816Y736975D01*
X628783Y736867D01*
X628746Y736760D01*
X628706Y736654D01*
X628661Y736550D01*
X628613Y736447D01*
X628562Y736346D01*
X628507Y736247D01*
X628449Y736150D01*
X628387Y736055D01*
X628322Y735962D01*
X628254Y735872D01*
X628183Y735784D01*
X628108Y735698D01*
X628031Y735615D01*
X627951Y735535D01*
X627868Y735458D01*
X627782Y735383D01*
X627694Y735312D01*
X627604Y735244D01*
X627511Y735179D01*
X627416Y735117D01*
X627319Y735059D01*
X627220Y735004D01*
X627119Y734953D01*
X627016Y734905D01*
X626912Y734860D01*
X626806Y734820D01*
X626699Y734783D01*
X626591Y734750D01*
X626481Y734720D01*
X626371Y734695D01*
X626260Y734673D01*
X626148Y734656D01*
X626035Y734642D01*
X625922Y734632D01*
X625809Y734626D01*
X625696Y734624D01*
X625696Y746435D02*
X617258Y746435D01*
X625696Y746435D02*
X625809Y746437D01*
X625922Y746443D01*
X626035Y746453D01*
X626148Y746467D01*
X626260Y746484D01*
X626371Y746506D01*
X626481Y746531D01*
X626591Y746561D01*
X626699Y746594D01*
X626806Y746631D01*
X626912Y746671D01*
X627016Y746716D01*
X627119Y746764D01*
X627220Y746815D01*
X627319Y746870D01*
X627416Y746928D01*
X627511Y746990D01*
X627604Y747055D01*
X627694Y747123D01*
X627782Y747194D01*
X627868Y747269D01*
X627951Y747346D01*
X628031Y747426D01*
X628108Y747509D01*
X628183Y747595D01*
X628254Y747683D01*
X628322Y747773D01*
X628387Y747866D01*
X628449Y747961D01*
X628507Y748058D01*
X628562Y748157D01*
X628613Y748258D01*
X628661Y748361D01*
X628706Y748465D01*
X628746Y748571D01*
X628783Y748678D01*
X628816Y748786D01*
X628846Y748896D01*
X628871Y749006D01*
X628893Y749117D01*
X628910Y749229D01*
X628924Y749342D01*
X628934Y749455D01*
X628940Y749568D01*
X628942Y749681D01*
X628940Y749794D01*
X628934Y749907D01*
X628924Y750020D01*
X628910Y750133D01*
X628893Y750245D01*
X628871Y750356D01*
X628846Y750466D01*
X628816Y750576D01*
X628783Y750684D01*
X628746Y750791D01*
X628706Y750897D01*
X628661Y751001D01*
X628613Y751104D01*
X628562Y751205D01*
X628507Y751304D01*
X628449Y751401D01*
X628387Y751496D01*
X628322Y751589D01*
X628254Y751679D01*
X628183Y751767D01*
X628108Y751853D01*
X628031Y751936D01*
X627951Y752016D01*
X627868Y752093D01*
X627782Y752168D01*
X627694Y752239D01*
X627604Y752307D01*
X627511Y752372D01*
X627416Y752434D01*
X627319Y752492D01*
X627220Y752547D01*
X627119Y752598D01*
X627016Y752646D01*
X626912Y752691D01*
X626806Y752731D01*
X626699Y752768D01*
X626591Y752801D01*
X626481Y752831D01*
X626371Y752856D01*
X626260Y752878D01*
X626148Y752895D01*
X626035Y752909D01*
X625922Y752919D01*
X625809Y752925D01*
X625696Y752927D01*
X617258Y752927D01*
X617258Y760730D02*
X628942Y760730D01*
X617258Y757484D02*
X617258Y763976D01*
D13*
X621500Y806450D02*
X621500Y819150D01*
X627850Y685800D02*
X615150Y685800D01*
X826300Y692150D02*
X826300Y679450D01*
X621500Y679450D02*
X621500Y692150D01*
X826300Y806450D02*
X826300Y819150D01*
X832650Y685800D02*
X819950Y685800D01*
D18*
X900350Y246150D02*
X900352Y246213D01*
X900358Y246275D01*
X900368Y246337D01*
X900381Y246399D01*
X900399Y246459D01*
X900420Y246518D01*
X900445Y246576D01*
X900474Y246632D01*
X900506Y246686D01*
X900541Y246738D01*
X900579Y246787D01*
X900621Y246835D01*
X900665Y246879D01*
X900713Y246921D01*
X900762Y246959D01*
X900814Y246994D01*
X900868Y247026D01*
X900924Y247055D01*
X900982Y247080D01*
X901041Y247101D01*
X901101Y247119D01*
X901163Y247132D01*
X901225Y247142D01*
X901287Y247148D01*
X901350Y247150D01*
X901413Y247148D01*
X901475Y247142D01*
X901537Y247132D01*
X901599Y247119D01*
X901659Y247101D01*
X901718Y247080D01*
X901776Y247055D01*
X901832Y247026D01*
X901886Y246994D01*
X901938Y246959D01*
X901987Y246921D01*
X902035Y246879D01*
X902079Y246835D01*
X902121Y246787D01*
X902159Y246738D01*
X902194Y246686D01*
X902226Y246632D01*
X902255Y246576D01*
X902280Y246518D01*
X902301Y246459D01*
X902319Y246399D01*
X902332Y246337D01*
X902342Y246275D01*
X902348Y246213D01*
X902350Y246150D01*
X902348Y246087D01*
X902342Y246025D01*
X902332Y245963D01*
X902319Y245901D01*
X902301Y245841D01*
X902280Y245782D01*
X902255Y245724D01*
X902226Y245668D01*
X902194Y245614D01*
X902159Y245562D01*
X902121Y245513D01*
X902079Y245465D01*
X902035Y245421D01*
X901987Y245379D01*
X901938Y245341D01*
X901886Y245306D01*
X901832Y245274D01*
X901776Y245245D01*
X901718Y245220D01*
X901659Y245199D01*
X901599Y245181D01*
X901537Y245168D01*
X901475Y245158D01*
X901413Y245152D01*
X901350Y245150D01*
X901287Y245152D01*
X901225Y245158D01*
X901163Y245168D01*
X901101Y245181D01*
X901041Y245199D01*
X900982Y245220D01*
X900924Y245245D01*
X900868Y245274D01*
X900814Y245306D01*
X900762Y245341D01*
X900713Y245379D01*
X900665Y245421D01*
X900621Y245465D01*
X900579Y245513D01*
X900541Y245562D01*
X900506Y245614D01*
X900474Y245668D01*
X900445Y245724D01*
X900420Y245782D01*
X900399Y245841D01*
X900381Y245901D01*
X900368Y245963D01*
X900358Y246025D01*
X900352Y246087D01*
X900350Y246150D01*
D10*
X901550Y223200D02*
X901550Y183200D01*
X851050Y183200D02*
X851050Y223200D01*
D17*
X903828Y221090D02*
X912266Y221090D01*
X912266Y221089D02*
X912379Y221091D01*
X912492Y221097D01*
X912605Y221107D01*
X912718Y221121D01*
X912830Y221138D01*
X912941Y221160D01*
X913051Y221185D01*
X913161Y221215D01*
X913269Y221248D01*
X913376Y221285D01*
X913482Y221325D01*
X913586Y221370D01*
X913689Y221418D01*
X913790Y221469D01*
X913889Y221524D01*
X913986Y221582D01*
X914081Y221644D01*
X914174Y221709D01*
X914264Y221777D01*
X914352Y221848D01*
X914438Y221923D01*
X914521Y222000D01*
X914601Y222080D01*
X914678Y222163D01*
X914753Y222249D01*
X914824Y222337D01*
X914892Y222427D01*
X914957Y222520D01*
X915019Y222615D01*
X915077Y222712D01*
X915132Y222811D01*
X915183Y222912D01*
X915231Y223015D01*
X915276Y223119D01*
X915316Y223225D01*
X915353Y223332D01*
X915386Y223440D01*
X915416Y223550D01*
X915441Y223660D01*
X915463Y223771D01*
X915480Y223883D01*
X915494Y223996D01*
X915504Y224109D01*
X915510Y224222D01*
X915512Y224335D01*
X915510Y224448D01*
X915504Y224561D01*
X915494Y224674D01*
X915480Y224787D01*
X915463Y224899D01*
X915441Y225010D01*
X915416Y225120D01*
X915386Y225230D01*
X915353Y225338D01*
X915316Y225445D01*
X915276Y225551D01*
X915231Y225655D01*
X915183Y225758D01*
X915132Y225859D01*
X915077Y225958D01*
X915019Y226055D01*
X914957Y226150D01*
X914892Y226243D01*
X914824Y226333D01*
X914753Y226421D01*
X914678Y226507D01*
X914601Y226590D01*
X914521Y226670D01*
X914438Y226747D01*
X914352Y226822D01*
X914264Y226893D01*
X914174Y226961D01*
X914081Y227026D01*
X913986Y227088D01*
X913889Y227146D01*
X913790Y227201D01*
X913689Y227252D01*
X913586Y227300D01*
X913482Y227345D01*
X913376Y227385D01*
X913269Y227422D01*
X913161Y227455D01*
X913051Y227485D01*
X912941Y227510D01*
X912830Y227532D01*
X912718Y227549D01*
X912605Y227563D01*
X912492Y227573D01*
X912379Y227579D01*
X912266Y227581D01*
X903828Y227581D01*
X906424Y232901D02*
X903828Y236146D01*
X915512Y236146D01*
X915512Y232901D02*
X915512Y239392D01*
M02*
