G04 EAGLE Gerber RS-274X export*
G75*
%MOMM*%
%FSLAX34Y34*%
%LPD*%
%INSoldermask Bottom*%
%IPPOS*%
%AMOC8*
5,1,8,0,0,1.08239X$1,22.5*%
G01*
%ADD10C,2.082800*%
%ADD11C,3.505200*%
%ADD12P,3.629037X8X202.500000*%
%ADD13C,1.727200*%
%ADD14C,1.524000*%
%ADD15R,3.003200X3.003200*%
%ADD16C,0.959600*%


D10*
X777240Y292100D03*
X774700Y317500D03*
X777240Y342900D03*
X774700Y368300D03*
X777240Y393700D03*
X774700Y419100D03*
X777240Y469900D03*
X774700Y495300D03*
X777240Y520700D03*
X774700Y546100D03*
X777240Y571500D03*
X774700Y596900D03*
X292100Y596900D03*
X289560Y571500D03*
X292100Y546100D03*
X289560Y520700D03*
X292100Y495300D03*
X289560Y469900D03*
X292100Y444500D03*
X289560Y419100D03*
X292100Y378460D03*
X289560Y353060D03*
X292100Y327660D03*
X289560Y302260D03*
X292100Y276860D03*
X289560Y251460D03*
X292100Y226060D03*
X289560Y200660D03*
X292100Y175260D03*
X292100Y149860D03*
X774700Y266700D03*
X777240Y241300D03*
D11*
X228600Y165100D03*
X25400Y165100D03*
X25400Y495300D03*
X228600Y495300D03*
D10*
X12700Y215900D03*
X12700Y241300D03*
X12700Y266700D03*
X12700Y292100D03*
X12700Y317500D03*
X12700Y342900D03*
X12700Y368300D03*
X12700Y393700D03*
X12700Y419100D03*
X12700Y444500D03*
X241300Y215900D03*
X241300Y241300D03*
X241300Y266700D03*
X241300Y292100D03*
X241300Y317500D03*
X241300Y342900D03*
X241300Y368300D03*
X241300Y393700D03*
X241300Y419100D03*
X241300Y444500D03*
D12*
X533400Y812800D03*
X533400Y711200D03*
X281940Y762000D03*
D10*
X863600Y76200D03*
X863600Y101600D03*
X88900Y647700D03*
X114300Y647700D03*
X139700Y647700D03*
X165100Y647700D03*
X76200Y723900D03*
X76200Y749300D03*
X927100Y101600D03*
X927100Y76200D03*
D13*
X863600Y297180D02*
X863600Y312420D01*
X889000Y312420D02*
X889000Y297180D01*
X914400Y297180D02*
X914400Y312420D01*
D14*
X870204Y533400D02*
X856996Y533400D01*
X856996Y508000D02*
X870204Y508000D01*
X870204Y482600D02*
X856996Y482600D01*
X856996Y457200D02*
X870204Y457200D01*
X870204Y431800D02*
X856996Y431800D01*
X856996Y406400D02*
X870204Y406400D01*
D15*
X591500Y681200D03*
X591500Y817400D03*
X856300Y817400D03*
X856300Y681200D03*
D16*
X12700Y838200D03*
X914400Y825500D03*
X914400Y38100D03*
X0Y38100D03*
M02*
