G04 EAGLE Gerber RS-274X export*
G75*
%MOMM*%
%FSLAX34Y34*%
%LPD*%
%INSoldermask Top*%
%IPPOS*%
%AMOC8*
5,1,8,0,0,1.08239X$1,22.5*%
G01*
%ADD10C,2.082800*%
%ADD11C,3.505200*%
%ADD12P,3.629037X8X202.500000*%
%ADD13R,1.503200X0.903200*%
%ADD14C,1.727200*%
%ADD15C,1.524000*%
%ADD16R,3.003200X3.003200*%
%ADD17C,0.353406*%
%ADD18C,0.959600*%


D10*
X777240Y292100D03*
X774700Y317500D03*
X777240Y342900D03*
X774700Y368300D03*
X777240Y393700D03*
X774700Y419100D03*
X777240Y469900D03*
X774700Y495300D03*
X777240Y520700D03*
X774700Y546100D03*
X777240Y571500D03*
X774700Y596900D03*
X292100Y596900D03*
X289560Y571500D03*
X292100Y546100D03*
X289560Y520700D03*
X292100Y495300D03*
X289560Y469900D03*
X292100Y444500D03*
X289560Y419100D03*
X292100Y378460D03*
X289560Y353060D03*
X292100Y327660D03*
X289560Y302260D03*
X292100Y276860D03*
X289560Y251460D03*
X292100Y226060D03*
X289560Y200660D03*
X292100Y175260D03*
X292100Y149860D03*
X774700Y266700D03*
X777240Y241300D03*
D11*
X228600Y165100D03*
X25400Y165100D03*
X25400Y495300D03*
X228600Y495300D03*
D10*
X12700Y215900D03*
X12700Y241300D03*
X12700Y266700D03*
X12700Y292100D03*
X12700Y317500D03*
X12700Y342900D03*
X12700Y368300D03*
X12700Y393700D03*
X12700Y419100D03*
X12700Y444500D03*
X241300Y215900D03*
X241300Y241300D03*
X241300Y266700D03*
X241300Y292100D03*
X241300Y317500D03*
X241300Y342900D03*
X241300Y368300D03*
X241300Y393700D03*
X241300Y419100D03*
X241300Y444500D03*
D12*
X533400Y812800D03*
X533400Y711200D03*
X281940Y762000D03*
D13*
X218000Y755650D03*
X218000Y768350D03*
X218000Y742950D03*
X218000Y730250D03*
X163000Y755650D03*
X163000Y768350D03*
X163000Y742950D03*
X163000Y730250D03*
D10*
X863600Y76200D03*
X863600Y101600D03*
X88900Y647700D03*
X114300Y647700D03*
X139700Y647700D03*
X165100Y647700D03*
X76200Y723900D03*
X76200Y749300D03*
X927100Y101600D03*
X927100Y76200D03*
D14*
X863600Y297180D02*
X863600Y312420D01*
X889000Y312420D02*
X889000Y297180D01*
X914400Y297180D02*
X914400Y312420D01*
D15*
X870204Y533400D02*
X856996Y533400D01*
X856996Y508000D02*
X870204Y508000D01*
X870204Y482600D02*
X856996Y482600D01*
X856996Y457200D02*
X870204Y457200D01*
X870204Y431800D02*
X856996Y431800D01*
X856996Y406400D02*
X870204Y406400D01*
D16*
X591500Y681200D03*
X591500Y817400D03*
X856300Y817400D03*
X856300Y681200D03*
D17*
X893101Y237049D02*
X893101Y221851D01*
X893101Y237049D02*
X897599Y237049D01*
X897599Y221851D01*
X893101Y221851D01*
X893101Y225208D02*
X897599Y225208D01*
X897599Y228565D02*
X893101Y228565D01*
X893101Y231922D02*
X897599Y231922D01*
X897599Y235279D02*
X893101Y235279D01*
X880401Y237049D02*
X880401Y221851D01*
X880401Y237049D02*
X884899Y237049D01*
X884899Y221851D01*
X880401Y221851D01*
X880401Y225208D02*
X884899Y225208D01*
X884899Y228565D02*
X880401Y228565D01*
X880401Y231922D02*
X884899Y231922D01*
X884899Y235279D02*
X880401Y235279D01*
X867701Y237049D02*
X867701Y221851D01*
X867701Y237049D02*
X872199Y237049D01*
X872199Y221851D01*
X867701Y221851D01*
X867701Y225208D02*
X872199Y225208D01*
X872199Y228565D02*
X867701Y228565D01*
X867701Y231922D02*
X872199Y231922D01*
X872199Y235279D02*
X867701Y235279D01*
X855001Y237049D02*
X855001Y221851D01*
X855001Y237049D02*
X859499Y237049D01*
X859499Y221851D01*
X855001Y221851D01*
X855001Y225208D02*
X859499Y225208D01*
X859499Y228565D02*
X855001Y228565D01*
X855001Y231922D02*
X859499Y231922D01*
X859499Y235279D02*
X855001Y235279D01*
X855001Y184549D02*
X855001Y169351D01*
X855001Y184549D02*
X859499Y184549D01*
X859499Y169351D01*
X855001Y169351D01*
X855001Y172708D02*
X859499Y172708D01*
X859499Y176065D02*
X855001Y176065D01*
X855001Y179422D02*
X859499Y179422D01*
X859499Y182779D02*
X855001Y182779D01*
X867701Y184549D02*
X867701Y169351D01*
X867701Y184549D02*
X872199Y184549D01*
X872199Y169351D01*
X867701Y169351D01*
X867701Y172708D02*
X872199Y172708D01*
X872199Y176065D02*
X867701Y176065D01*
X867701Y179422D02*
X872199Y179422D01*
X872199Y182779D02*
X867701Y182779D01*
X880401Y184549D02*
X880401Y169351D01*
X880401Y184549D02*
X884899Y184549D01*
X884899Y169351D01*
X880401Y169351D01*
X880401Y172708D02*
X884899Y172708D01*
X884899Y176065D02*
X880401Y176065D01*
X880401Y179422D02*
X884899Y179422D01*
X884899Y182779D02*
X880401Y182779D01*
X893101Y184549D02*
X893101Y169351D01*
X893101Y184549D02*
X897599Y184549D01*
X897599Y169351D01*
X893101Y169351D01*
X893101Y172708D02*
X897599Y172708D01*
X897599Y176065D02*
X893101Y176065D01*
X893101Y179422D02*
X897599Y179422D01*
X897599Y182779D02*
X893101Y182779D01*
D18*
X12700Y838200D03*
X914400Y825500D03*
X914400Y38100D03*
X0Y38100D03*
M02*
